<?xml version="1.0" standalone="no"?>
<!DOCTYPE svg PUBLIC "-//W3C//DTD SVG 20010904//EN"
 "http://www.w3.org/TR/2001/REC-SVG-20010904/DTD/svg10.dtd">
<svg version="1.0" xmlns="http://www.w3.org/2000/svg"
 width="640.000000pt" height="960.000000pt" viewBox="0 0 640.000000 960.000000"
 preserveAspectRatio="xMidYMid meet">

<g transform="translate(0.000000,960.000000) scale(0.100000,-0.100000)"
fill="#000000" stroke="none">
<path d="M0 4800 l0 -4800 3200 0 3200 0 0 4800 0 4800 -3200 0 -3200 0 0
-4800z m3537 2743 c36 -21 93 -69 93 -78 0 -4 -16 7 -35 24 -46 40 -96 53
-165 42 -30 -5 -56 -8 -58 -6 -1 1 12 10 30 18 43 22 96 21 135 0z m714 -7
c39 -16 85 -61 71 -70 -5 -3 -20 6 -33 21 -13 14 -37 34 -54 44 -36 23 -30 24
16 5z m-806 -26 c13 -5 14 -9 5 -9 -8 0 -24 4 -35 9 -13 5 -14 9 -5 9 8 0 24
-4 35 -9z m-15 -22 c36 -18 50 -34 72 -78 15 -30 27 -48 28 -40 0 12 2 13 9 1
5 -7 13 -11 18 -8 6 4 15 -5 21 -18 8 -17 16 -23 28 -18 11 4 22 -1 31 -13 12
-16 15 -17 23 -4 9 13 10 13 10 0 0 -12 2 -13 9 -1 7 11 10 9 15 -7 4 -13 13
-19 22 -15 7 3 14 0 14 -7 0 -6 5 -8 10 -5 6 3 10 1 10 -4 0 -6 4 -10 9 -9 14
5 102 -63 96 -73 -3 -5 1 -6 9 -3 9 3 16 1 16 -5 0 -6 14 -23 30 -38 17 -14
30 -30 30 -34 0 -4 5 -20 12 -36 6 -15 12 -35 14 -44 2 -8 12 -53 23 -100 10
-46 17 -104 15 -129 -7 -78 -24 -153 -38 -169 -7 -9 -20 -29 -29 -46 -8 -16
-29 -46 -46 -65 -16 -19 -36 -46 -43 -60 -26 -48 -228 -255 -259 -265 -11 -4
-19 -11 -19 -16 0 -6 -4 -8 -9 -5 -5 3 -11 -1 -15 -9 -3 -8 -13 -15 -21 -15
-9 0 -13 -4 -10 -10 3 -5 -6 -12 -20 -16 -14 -3 -25 -10 -25 -15 0 -4 -15 -15
-32 -24 -32 -15 -64 -39 -122 -93 -36 -33 -72 -110 -58 -124 6 -6 12 0 16 18
4 15 21 45 38 66 38 49 151 130 183 132 18 1 23 5 20 17 -4 11 9 26 42 48 l48
31 22 -48 22 -47 -48 -45 c-26 -25 -58 -54 -72 -65 -105 -86 -121 -97 -132
-86 -7 7 -16 7 -29 0 -22 -12 -15 -30 10 -23 14 5 15 4 2 -5 -12 -9 -13 -14
-2 -31 9 -14 10 -26 3 -38 -10 -16 -10 -16 -11 1 0 9 -7 17 -15 17 -8 0 -15
-6 -15 -13 0 -7 -14 -21 -30 -31 -17 -9 -27 -22 -24 -28 4 -6 2 -8 -3 -5 -6 4
-18 -3 -26 -16 -8 -12 -35 -43 -59 -68 -52 -56 -112 -151 -75 -121 13 11 15
10 10 -8 -5 -17 -12 -21 -41 -18 -29 2 -42 11 -60 38 l-24 35 4 -53 c3 -29 8
-55 11 -59 4 -3 29 -8 58 -11 45 -4 50 -3 47 14 -2 12 9 25 37 41 48 27 55 60
12 55 -25 -3 -27 -1 -19 15 6 10 38 45 72 77 49 47 63 57 71 45 5 -8 9 -23 9
-34 0 -30 16 -49 34 -42 10 4 13 13 10 24 -5 14 -4 15 4 4 14 -19 66 -6 58 14
-3 8 -3 22 0 30 4 9 27 -28 62 -98 30 -61 56 -114 58 -116 2 -2 19 7 38 19 30
18 36 19 36 6 0 -27 1 -31 14 -46 7 -8 17 -27 23 -42 10 -21 9 -27 -3 -32 -8
-3 -14 -12 -14 -20 0 -8 -6 -17 -12 -19 -10 -4 -10 -8 2 -16 19 -13 33 -3 27
19 -3 12 2 20 14 23 12 3 19 0 19 -9 0 -8 -5 -14 -11 -14 -6 0 -8 -8 -4 -19 3
-11 1 -22 -5 -26 -6 -4 -8 -15 -5 -25 5 -14 -2 -21 -30 -31 -19 -7 -35 -19
-35 -26 0 -8 -7 -16 -16 -20 -8 -3 -13 -12 -10 -19 3 -8 0 -11 -10 -7 -10 4
-12 0 -8 -11 3 -9 1 -16 -5 -16 -6 0 -11 -5 -11 -11 0 -6 8 -8 18 -5 14 5 14
4 -2 -9 -11 -8 -27 -15 -35 -15 -9 -1 -27 -7 -41 -15 -23 -13 -17 -14 60 -8
47 3 93 6 102 5 10 0 20 4 23 9 4 5 10 7 15 4 5 -3 7 9 5 27 -3 24 -2 29 5 18
8 -13 10 -13 10 2 0 9 -6 19 -12 22 -7 3 -3 3 10 0 12 -3 22 -1 22 5 0 6 -4
11 -8 11 -4 0 -8 9 -8 20 0 11 6 20 13 20 15 0 18 17 4 22 -5 2 -4 14 2 28
l10 25 7 -30 c5 -24 8 -26 14 -13 4 9 2 26 -4 38 -7 13 -8 20 -2 16 6 -3 15
-21 20 -39 13 -40 24 -163 12 -127 -4 14 -8 40 -9 58 -1 22 -5 32 -13 29 -7
-2 -11 -11 -10 -18 2 -8 5 -35 7 -61 4 -59 12 -73 31 -57 9 7 14 8 14 1 0 -6
-4 -14 -10 -17 -16 -10 -12 -25 5 -19 18 7 20 -7 3 -25 -11 -11 -10 -13 5 -8
19 7 23 -9 8 -32 -7 -12 -13 -12 -24 -3 -13 12 -27 7 -27 -9 0 -5 6 -6 14 -3
7 3 16 -2 20 -12 4 -11 2 -15 -8 -11 -11 4 -13 1 -9 -10 5 -14 9 -13 25 7 10
12 19 19 19 16 1 -3 2 -10 3 -15 0 -5 4 -12 8 -16 4 -4 4 -14 1 -22 -4 -9 0
-14 8 -13 32 5 41 0 36 -20 -3 -11 -1 -20 4 -20 5 0 9 8 10 18 0 14 2 14 8 -3
5 -12 4 -22 -3 -25 -12 -5 -18 -40 -7 -40 4 0 12 5 19 12 9 9 12 8 12 -5 0 -9
-7 -17 -16 -17 -13 0 -15 -6 -10 -27 10 -42 14 -66 15 -91 1 -13 5 -20 11 -17
6 4 8 15 5 26 -4 11 -2 19 5 19 16 0 10 -102 -8 -122 -8 -10 -10 -18 -4 -18 6
0 13 6 15 13 3 6 6 2 6 -10 1 -21 -9 -28 -31 -24 -13 2 -9 -17 5 -23 6 -3 0
-3 -15 0 -21 5 -28 2 -28 -9 0 -16 -27 -27 -48 -20 -6 3 -15 22 -18 44 -9 55
-54 78 -54 27 0 -10 -4 -18 -10 -18 -5 0 -10 -13 -10 -30 0 -16 -4 -30 -10
-30 -5 0 -10 -5 -10 -11 0 -6 7 -9 15 -5 32 12 13 -5 -32 -28 -32 -17 -41 -25
-28 -26 11 0 33 -7 49 -15 16 -9 32 -12 35 -8 3 4 17 9 31 11 35 5 70 40 51
51 -9 6 -10 11 -2 15 6 4 11 5 11 2 0 -2 3 -11 6 -19 3 -8 -2 -21 -10 -30 -14
-14 -13 -16 17 -23 31 -7 31 -8 7 -14 -18 -4 -27 -16 -35 -43 -6 -21 -14 -35
-18 -31 -4 4 -7 -4 -7 -18 0 -18 -7 -27 -21 -31 -12 -3 -18 -10 -14 -16 3 -6
1 -11 -5 -11 -6 0 -8 -4 -5 -10 3 -5 -7 -12 -22 -16 -45 -9 -50 -12 -23 -13
43 -1 114 19 147 42 25 17 33 29 33 53 0 17 5 45 11 63 9 25 14 29 25 20 8 -6
21 -9 29 -5 14 5 16 -5 14 -72 -4 -118 -46 -198 -123 -233 -22 -10 -33 -19
-23 -19 44 0 118 63 153 130 10 19 19 60 21 90 3 75 11 100 28 100 8 0 15 6
16 13 0 8 2 8 6 -2 4 -11 7 -11 14 0 16 26 21 -41 9 -109 -17 -91 -50 -162
-101 -217 -51 -55 -99 -82 -171 -94 -36 -6 -43 -9 -22 -10 54 -2 146 20 184
44 76 48 139 155 160 276 14 80 30 118 47 112 8 -3 13 3 13 17 0 13 -8 24 -20
27 -22 6 -24 11 -10 33 8 13 10 12 10 -2 0 -22 8 -23 31 -2 16 15 17 14 12 -5
-4 -15 -1 -21 12 -21 11 0 15 -5 12 -15 -4 -8 -2 -17 4 -20 5 -4 7 -11 3 -16
-3 -5 -1 -16 5 -23 6 -7 14 -41 17 -75 4 -34 12 -61 18 -61 8 0 8 -2 0 -8 -6
-4 -14 -45 -18 -92 -4 -47 -11 -114 -16 -150 -5 -35 -8 -65 -7 -67 10 -9 29
21 33 53 2 21 9 55 14 74 13 48 12 55 -5 40 -8 -7 -15 -9 -15 -5 0 4 8 14 17
21 15 10 18 30 19 126 0 62 1 118 2 124 3 16 42 25 44 11 0 -7 2 -16 3 -22 2
-5 3 -17 4 -25 1 -13 3 -13 10 -1 5 8 7 21 5 30 -3 9 1 5 8 -9 7 -14 16 -28
21 -31 5 -3 2 -9 -7 -12 -19 -8 -21 -33 -3 -41 10 -5 10 -7 0 -12 -18 -8 -16
-37 1 -31 10 4 13 1 9 -9 -3 -7 -11 -14 -19 -14 -8 0 -14 -9 -14 -21 0 -11 5
-17 10 -14 6 3 10 2 10 -3 0 -6 -6 -12 -14 -15 -8 -3 -16 -29 -20 -67 -7 -62
-36 -241 -56 -340 -15 -77 -64 -238 -108 -350 -63 -163 -153 -277 -239 -304
-13 -4 -23 -11 -23 -16 0 -5 7 -7 15 -4 9 4 15 0 16 -7 0 -8 4 -5 8 6 8 19 8
19 16 -5 5 -15 4 -25 -4 -28 -6 -2 -9 -8 -6 -13 4 -5 -2 -6 -11 -2 -13 5 -16
3 -11 -10 7 -19 -8 -33 -19 -16 -5 8 -3 9 6 4 9 -6 11 -4 5 4 -5 10 -10 10
-19 1 -14 -14 22 -44 73 -61 36 -12 122 -7 183 11 107 31 255 232 338 460 15
41 46 125 68 185 76 204 140 436 179 645 20 109 25 459 9 758 -6 115 -5 172 1
172 6 0 14 -42 18 -92 4 -51 9 -102 11 -113 2 -11 8 -99 14 -195 14 -215 13
-301 -8 -440 -6 -41 -14 -99 -17 -128 -6 -63 -15 -103 -25 -117 -5 -5 -14 -38
-21 -72 -7 -35 -17 -63 -22 -63 -5 0 -7 -7 -4 -14 3 -8 -5 -48 -19 -88 -14
-40 -32 -95 -40 -123 -9 -27 -20 -55 -24 -60 -5 -6 -11 -22 -14 -35 -7 -35
-26 -90 -42 -123 -8 -16 -11 -34 -7 -39 3 -7 1 -8 -5 -4 -8 5 -12 0 -12 -13 0
-11 -4 -22 -9 -25 -4 -3 -16 -33 -25 -66 -10 -36 -21 -58 -28 -54 -7 4 -8 -1
-3 -16 4 -14 3 -20 -3 -17 -5 4 -17 -13 -27 -36 -39 -95 -79 -167 -104 -191
-48 -46 -62 -64 -65 -78 -7 -48 -92 -98 -168 -99 -39 0 -40 -1 -18 -10 13 -5
49 -8 80 -5 40 4 47 3 25 -3 -56 -16 -105 -11 -163 15 -72 32 -118 67 -136
102 -8 15 -44 48 -80 72 -36 25 -79 63 -95 85 -67 94 -102 285 -102 555 0 190
-16 303 -49 349 -11 14 -29 72 -41 128 -12 56 -25 100 -29 98 -18 -11 -80 86
-80 124 0 11 -9 22 -20 26 -58 19 -106 134 -76 181 14 20 14 24 0 35 -28 23
-45 69 -45 124 -1 40 -6 59 -18 68 -47 33 -72 135 -42 171 11 13 7 20 -24 47
-39 35 -65 77 -65 108 0 12 -16 28 -45 45 -54 32 -65 51 -65 110 0 56 14 66
35 26 28 -54 51 -70 101 -70 37 0 45 3 40 15 -3 8 3 20 13 27 16 11 41 49 41
61 0 2 -60 7 -132 10 -73 2 -148 10 -166 17 -56 21 -66 65 -31 138 l21 43 -21
15 c-12 9 -18 20 -15 26 4 7 2 8 -4 4 -7 -4 -12 -2 -12 3 0 6 -6 11 -13 11
-21 0 -56 43 -67 80 -7 26 -6 39 5 56 13 20 13 27 -1 60 -10 24 -14 53 -11 77
8 58 75 161 174 267 49 52 105 118 125 145 58 81 164 284 187 359 27 87 35
213 23 338 -8 89 -13 102 -50 160 -23 35 -53 89 -68 121 -47 104 -23 195 61
233 47 21 124 17 175 -8z m969 -123 c36 -77 52 -120 72 -194 25 -92 49 -275
48 -355 l-1 -61 -8 45 c-5 25 -18 107 -30 184 -12 76 -32 176 -46 222 -13 46
-24 92 -24 102 0 9 -11 30 -25 46 -14 16 -25 37 -25 47 0 10 -4 21 -10 24 -5
3 -10 12 -10 18 1 17 37 -31 59 -78z m-443 -117 c3 -11 4 -22 1 -25 -3 -2 -8
5 -12 16 -3 12 -11 21 -16 21 -5 0 -9 4 -9 10 0 16 29 -1 36 -22z m-45 -5 c13
-16 12 -17 -3 -4 -17 13 -22 21 -14 21 2 0 10 -8 17 -17z m26 -39 c-3 -4 -2
-15 4 -25 12 -24 1 -25 -17 -1 -18 23 -17 32 3 32 9 0 13 -3 10 -6z m710 -16
c-3 -8 -6 -5 -6 6 -1 11 2 17 5 13 3 -3 4 -12 1 -19z m-666 -53 c5 4 9 2 9 -4
0 -5 -4 -12 -9 -15 -9 -6 -22 17 -20 37 1 7 3 4 6 -6 2 -9 9 -15 14 -12z m36
-17 c-3 -8 -6 -5 -6 6 -1 11 2 17 5 13 3 -3 4 -12 1 -19z m96 -183 c58 -149
113 -312 146 -435 89 -330 130 -767 87 -915 -19 -66 -58 -130 -90 -147 -13 -7
-6 5 17 33 59 68 72 127 71 314 -1 364 -61 658 -227 1105 -13 36 -39 99 -56
140 -18 41 -25 68 -17 60 8 -8 39 -78 69 -155z m-87 128 c15 -24 15 -26 1 -14
-9 7 -17 10 -17 7 0 -4 -6 -1 -14 6 -11 11 -6 26 10 28 1 0 10 -12 20 -27z
m14 -142 c0 -32 -6 -24 -14 19 -4 25 -3 31 4 20 5 -8 10 -26 10 -39z m0 -96
c-8 -40 -8 -40 -9 15 0 35 3 50 8 40 5 -8 5 -33 1 -55z m-4 -100 c-14 -88
-106 -311 -137 -331 -6 -4 3 19 20 51 18 32 29 60 27 63 -3 3 -12 -11 -20 -30
-8 -19 -22 -40 -30 -48 -9 -7 -16 -17 -16 -22 0 -5 -6 -15 -12 -23 -29 -30
-48 -56 -48 -65 0 -6 -7 -10 -15 -10 -8 0 -14 -6 -13 -12 2 -7 -3 -12 -10 -10
-8 1 -11 -2 -7 -8 7 -12 -19 -42 -29 -33 -3 4 -6 1 -6 -6 0 -7 -4 -9 -10 -6
-6 4 -7 -1 -3 -12 6 -16 5 -16 -11 -4 -15 13 -17 12 -12 -13 3 -15 1 -35 -4
-44 -5 -10 -12 -26 -16 -37 -6 -16 -9 -12 -14 20 -7 37 -14 32 -11 -7 3 -27
-7 -22 -25 13 l-16 31 96 97 c103 104 184 199 210 246 9 17 28 48 41 70 13 22
34 70 45 108 24 77 35 87 26 22z m-198 -419 c-13 -20 -26 -36 -30 -36 -4 0 5
18 20 39 34 48 42 46 10 -3z m-113 -146 c-3 -5 -12 -10 -18 -10 -7 0 -6 4 3
10 19 12 23 12 15 0z m-314 -443 c-8 -8 -11 -3 -11 16 0 15 -5 27 -11 27 -5 0
-7 5 -3 11 4 8 12 2 21 -16 11 -20 12 -30 4 -38z m-67 1 c8 -43 -5 -50 -22
-13 -9 20 -9 29 1 39 15 17 13 19 21 -26z m415 -237 c11 -19 11 -25 0 -33 -11
-8 -10 -9 3 -4 36 11 92 -121 114 -268 8 -56 17 -116 20 -133 4 -23 2 -33 -6
-33 -7 0 -10 7 -6 16 3 9 2 12 -5 9 -5 -4 -7 -16 -3 -28 6 -19 5 -20 -10 -8
-10 9 -14 21 -10 34 4 12 2 17 -4 13 -19 -11 -32 30 -41 126 -9 96 -32 169
-63 202 -10 12 -16 28 -12 38 3 12 0 18 -10 18 -9 0 -24 17 -33 38 -8 20 -21
48 -27 60 -9 21 -6 27 24 52 l35 29 11 -52 c6 -29 16 -63 23 -76z m-93 -58
c-2 -3 -7 5 -11 16 -3 12 -11 21 -16 21 -6 0 -8 4 -4 9 3 5 1 12 -5 16 -5 3
-10 16 -9 28 0 15 8 4 25 -32 13 -30 22 -56 20 -58z m34 -144 c-13 -31 -27
-38 -27 -14 0 8 4 15 9 15 5 0 6 5 3 10 -3 6 -1 10 5 10 6 0 8 5 5 10 -3 6 -3
16 2 23 13 21 16 -22 3 -54z m-581 -14 c6 -3 11 -11 11 -17 0 -6 -11 -1 -24
11 -15 14 -22 29 -19 39 5 12 8 11 14 -5 4 -12 12 -24 18 -28z m1433 13 c-8
-8 -9 -4 -5 13 4 13 8 18 11 10 2 -7 -1 -18 -6 -23z m-2181 -145 c12 -15 12
-16 -4 -10 -10 4 -33 7 -50 8 -27 0 -29 2 -12 9 31 13 51 11 66 -7z m-571 -28
c-7 -9 -15 -13 -17 -11 -7 7 7 26 19 26 6 0 6 -6 -2 -15z m649 9 c17 -4 42
-17 56 -30 39 -36 34 -81 -21 -183 l-47 -86 -1 -115 c0 -102 2 -122 26 -177
44 -107 108 -209 185 -295 112 -125 122 -148 119 -247 l-3 -83 -41 -34 -41
-35 15 -36 c21 -49 8 -78 -40 -87 -32 -6 -35 -10 -30 -31 10 -39 -4 -73 -35
-89 -17 -9 -32 -27 -36 -43 -3 -15 -16 -38 -28 -51 -16 -18 -22 -36 -22 -72 0
-36 -6 -54 -22 -72 -15 -16 -23 -37 -23 -59 0 -19 -7 -45 -16 -57 -9 -13 -14
-32 -11 -43 8 -30 -11 -86 -36 -106 -13 -10 -29 -33 -36 -51 -8 -18 -22 -39
-32 -46 -11 -7 -25 -40 -34 -80 -9 -38 -24 -80 -33 -94 -13 -20 -18 -61 -23
-196 -11 -260 -29 -338 -95 -399 -25 -23 -68 -65 -97 -93 -30 -30 -65 -54 -84
-58 -41 -9 -104 8 -132 36 -54 55 -141 187 -141 215 0 4 11 -9 25 -29 14 -20
25 -41 25 -45 0 -5 24 -32 53 -60 76 -75 178 -97 233 -50 l27 23 -32 13 c-36
16 -41 31 -8 31 20 0 19 2 -9 19 -53 33 -107 118 -149 238 -20 56 -16 74 11
52 16 -13 16 -10 10 36 -11 76 -36 199 -43 205 -3 3 -2 -23 2 -57 6 -56 5 -61
-12 -59 -15 2 -22 23 -40 122 -31 172 -38 238 -23 229 8 -5 8 -2 -1 12 -10 17
-8 24 11 43 15 15 19 25 12 28 -20 6 -14 28 8 28 19 0 28 -25 13 -39 -16 -17
11 -287 29 -287 5 0 5 12 1 28 -13 48 -8 238 6 256 7 8 10 19 7 24 -3 5 4 18
15 28 21 19 21 19 14 -13 -5 -26 -3 -33 8 -33 10 0 20 -23 32 -69 27 -110 78
-175 147 -187 29 -5 31 -4 13 7 -71 42 -115 114 -122 199 -4 46 -2 58 10 63
13 5 17 -4 22 -41 7 -59 43 -131 75 -151 25 -16 25 -16 -3 17 -31 39 -46 84
-29 90 7 2 12 20 12 40 0 40 16 34 22 -8 2 -17 15 -31 41 -43 45 -23 61 -19
44 9 -57 100 -58 102 -37 109 10 3 27 2 37 -3 19 -10 63 1 63 15 0 5 -9 14
-20 21 -11 7 -20 21 -20 31 0 58 -43 72 -55 19 -6 -25 -9 -28 -12 -14 -4 15
-7 16 -14 5 -6 -10 -9 -10 -9 -1 0 6 -9 12 -20 12 -17 0 -20 7 -20 39 0 23 6
44 15 51 9 7 14 19 11 26 -10 26 14 25 41 -2 22 -22 39 -28 83 -31 54 -4 55
-4 28 12 -15 8 -34 28 -43 44 -25 50 -42 62 -70 49 -14 -6 -25 -15 -25 -20 0
-5 -4 -7 -9 -3 -12 7 12 68 28 73 6 2 11 10 11 18 0 9 7 14 17 12 10 -2 18 4
19 15 1 12 1 13 -3 2 -2 -8 -9 -13 -14 -10 -12 8 -12 55 0 55 5 0 12 9 16 19
4 13 12 18 23 15 11 -4 13 -3 6 3 -13 9 -26 105 -13 98 4 -3 10 4 14 15 3 11
10 20 15 20 10 0 1 -38 -11 -46 -5 -3 -9 -17 -8 -32 0 -24 1 -25 9 -7 8 18 9
18 10 -5 2 -14 2 -28 1 -33 -2 -11 35 -23 92 -30 49 -7 62 4 28 23 -11 5 -26
22 -33 37 -7 15 -28 37 -46 49 -18 12 -28 25 -23 28 5 3 8 14 6 24 -1 9 0 11
2 5 3 -7 9 -13 13 -13 6 0 6 10 0 24 -5 15 -5 37 2 59 10 32 14 35 40 30 20
-4 28 -2 28 8 0 9 3 10 8 3 4 -6 25 -14 47 -17 22 -3 56 -8 75 -12 l35 -7 -31
29 c-61 54 -83 71 -89 65 -11 -11 -4 24 10 48 9 17 14 20 15 9 0 -15 38 -39
60 -39 6 0 10 14 10 30 0 37 13 38 45 4 14 -15 25 -22 25 -16 0 5 -25 33 -56
61 -43 39 -55 56 -51 72 4 13 0 22 -11 26 -38 11 -63 28 -117 77 -53 48 -56
53 -46 79 13 34 34 34 60 1 11 -15 39 -35 60 -46 22 -11 58 -39 80 -64 23 -24
41 -39 41 -34 0 21 -68 84 -158 147 -54 37 -112 83 -131 103 -53 55 -141 167
-167 213 -30 53 -31 36 -1 -20 31 -59 61 -97 145 -183 39 -41 72 -78 72 -83 0
-5 -6 -15 -14 -22 -15 -15 -36 -2 -36 23 0 11 -96 128 -140 172 -22 21 -84
179 -75 188 3 4 9 1 13 -5 4 -7 8 20 9 60 2 81 21 153 54 201 30 44 113 104
163 117 49 13 99 49 122 88 27 45 60 57 123 45z m2041 2 c0 -2 -8 -10 -17 -17
-16 -13 -17 -12 -4 4 13 16 21 21 21 13z m-40 -46 c0 -5 -5 -10 -11 -10 -5 0
-7 5 -4 10 3 6 8 10 11 10 2 0 4 -4 4 -10z m-150 -19 c0 -6 -4 -13 -10 -16 -5
-3 -10 1 -10 9 0 9 5 16 10 16 6 0 10 -4 10 -9z m-2558 -23 c-7 -7 -12 -8 -12
-2 0 14 12 26 19 19 2 -3 -1 -11 -7 -17z m2523 12 c3 -5 -1 -10 -10 -10 -9 0
-13 5 -10 10 3 6 8 10 10 10 2 0 7 -4 10 -10z m-2559 -116 c-8 -27 -22 -92
-31 -144 -20 -114 -30 -132 -21 -35 7 73 29 168 48 210 18 39 19 23 4 -31z
m2246 15 c64 -225 65 -229 78 -359 5 -52 12 -108 15 -125 6 -30 6 -30 -8 -6
-11 18 -16 20 -20 10 -3 -8 -6 -4 -7 11 -1 14 -4 19 -7 12 -2 -6 -10 -9 -16
-5 -7 4 -6 -1 2 -10 8 -10 11 -20 7 -24 -9 -9 -15 0 -22 35 -6 29 -4 32 16 29
12 -2 26 -10 31 -18 11 -17 11 -2 0 26 -8 21 -41 27 -53 10 -4 -5 -8 8 -9 30
-4 207 -8 242 -33 312 -14 40 -23 79 -20 86 8 23 38 13 46 -14z m-35 -191 c-3
-7 -5 -2 -5 12 0 14 2 19 5 13 2 -7 2 -19 0 -25z m240 -110 c-3 -8 -6 -5 -6 6
-1 11 2 17 5 13 3 -3 4 -12 1 -19z m193 18 c0 -3 -4 -8 -10 -11 -5 -3 -10 -1
-10 4 0 6 5 11 10 11 6 0 10 -2 10 -4z m-35 -26 c3 -5 -1 -10 -10 -10 -9 0
-13 5 -10 10 3 6 8 10 10 10 2 0 7 -4 10 -10z m65 6 c0 -2 -9 -6 -20 -9 -11
-3 -18 -1 -14 4 5 9 34 13 34 5z m-246 -21 c-5 -11 -2 -14 12 -8 11 3 22 11
26 17 5 7 8 4 8 -6 0 -10 -7 -18 -15 -18 -9 0 -18 -6 -21 -14 -3 -8 -13 -17
-22 -21 -14 -5 -15 -4 -4 6 17 18 15 32 -3 25 -12 -4 -13 -2 -2 14 14 23 29
27 21 5z m101 -5 c3 -5 1 -10 -4 -10 -6 0 -11 5 -11 10 0 6 2 10 4 10 3 0 8
-4 11 -10z m40 -18 c-8 -8 -25 10 -19 20 4 6 9 5 15 -3 4 -7 6 -15 4 -17z
m115 24 c0 -3 -4 -8 -10 -11 -5 -3 -10 -1 -10 4 0 6 5 11 10 11 6 0 10 -2 10
-4z m-36 -14 c2 -4 -4 -19 -15 -32 -10 -14 -19 -19 -19 -12 0 6 -7 12 -16 12
-8 0 -12 5 -9 10 5 8 11 8 20 0 15 -12 30 3 20 20 -3 6 -2 10 4 10 5 0 12 -4
15 -8z m-164 -22 c0 -5 -5 -10 -11 -10 -5 0 -7 5 -4 10 3 6 8 10 11 10 2 0 4
-4 4 -10z m70 -10 c0 -5 -5 -10 -11 -10 -5 0 -7 5 -4 10 3 6 8 10 11 10 2 0 4
-4 4 -10z m140 -12 c0 -6 -6 -5 -15 2 -8 7 -15 14 -15 16 0 2 7 1 15 -2 8 -4
15 -11 15 -16z m-89 -19 l24 -20 -30 17 c-39 24 -40 24 -28 24 6 0 21 -9 34
-21z m-101 -23 c0 -2 -7 -6 -15 -10 -8 -3 -15 -1 -15 4 0 6 7 10 15 10 8 0 15
-2 15 -4z m106 -39 c8 3 14 1 14 -4 0 -14 -72 -46 -79 -35 -3 4 -15 12 -26 17
-18 7 -16 9 13 15 18 4 36 11 39 14 4 3 11 2 16 -3 5 -5 16 -7 23 -4z m34 -59
c0 -12 -40 -46 -61 -51 -12 -3 -19 0 -19 8 0 7 -3 21 -7 31 -5 13 -3 16 9 12
8 -4 21 -2 28 2 16 10 50 9 50 -2z m115 -28 c-3 -5 -12 -10 -18 -10 -7 0 -6 4
3 10 19 12 23 12 15 0z m-19 -114 c-9 -17 -16 -23 -21 -16 -4 6 1 20 11 31 10
11 12 19 6 19 -7 0 -12 5 -12 12 0 8 5 7 15 -3 14 -14 14 -19 1 -43z m40 45
c-4 -5 0 -11 6 -14 9 -3 4 -11 -12 -25 -14 -11 -27 -18 -30 -16 -2 3 2 9 10
14 8 5 16 15 16 22 3 25 4 28 10 28 3 0 3 -4 0 -9z m-38 -95 c-12 -7 -25 -11
-27 -9 -8 6 34 31 42 26 5 -3 -2 -11 -15 -17z m32 -9 c0 -2 -10 -12 -21 -23
-22 -19 -22 -19 -8 4 12 19 29 30 29 19z m-54 -57 c0 -11 -4 -20 -8 -20 -10 0
-11 24 -1 33 9 9 9 10 9 -13z m-6 -49 c0 -5 -7 -11 -14 -14 -10 -4 -13 -1 -9
9 6 15 23 19 23 5z m-2663 -103 c-3 -8 -6 -5 -6 6 -1 11 2 17 5 13 3 -3 4 -12
1 -19z m683 -57 c0 -6 -4 -13 -10 -16 -5 -3 -10 1 -10 9 0 9 5 16 10 16 6 0
10 -4 10 -9z m-241 -105 c13 -16 -2 -54 -43 -111 -31 -43 -44 -81 -49 -153 -5
-62 -22 -101 -38 -85 -4 4 -4 42 2 83 7 54 20 96 49 153 22 43 40 90 40 103 0
27 21 32 39 10z m-712 -558 c-1 -245 1 -283 20 -374 33 -157 94 -352 178 -569
l8 -20 -16 20 c-9 11 -17 24 -17 28 0 4 -9 27 -19 50 -31 69 -100 275 -131
392 -42 162 -54 282 -47 469 6 151 16 276 23 276 1 0 2 -123 1 -272z m563 152
c0 -6 -7 -27 -17 -48 -9 -21 -19 -77 -22 -131 -5 -82 -8 -95 -25 -97 -17 -2
-18 2 -11 59 6 55 40 200 52 220 6 11 23 9 23 -3z m-57 -310 c-3 -11 -7 -20
-8 -20 -1 0 -5 9 -8 20 -3 12 0 20 8 20 8 0 11 -8 8 -20z m-158 -10 c-3 -5
-15 -10 -25 -10 -10 0 -22 5 -25 10 -4 6 7 10 25 10 18 0 29 -4 25 -10z m2185
-34 c0 -3 -4 -8 -10 -11 -5 -3 -10 -1 -10 4 0 6 5 11 10 11 6 0 10 -2 10 -4z
m-30 -16 c0 -5 -5 -10 -11 -10 -5 0 -7 5 -4 10 3 6 8 10 11 10 2 0 4 -4 4 -10z
m14 -34 c-10 -8 -21 -12 -24 -9 -3 2 4 11 14 19 11 7 22 12 25 9 2 -3 -4 -12
-15 -19z"/>
<path d="M3616 7305 c4 -8 8 -15 10 -15 2 0 4 7 4 15 0 8 -4 15 -10 15 -5 0
-7 -7 -4 -15z"/>
<path d="M3332 7290 c-23 -3 -37 -14 -48 -34 -20 -41 -11 -73 37 -126 66 -73
76 -91 82 -147 1 -13 4 -23 8 -23 3 0 4 -20 4 -45 -1 -24 1 -43 4 -40 8 4 4
-78 -6 -125 -4 -19 -7 -42 -8 -50 -2 -35 -28 -136 -40 -155 -7 -11 -19 -39
-26 -62 -7 -24 -15 -43 -19 -43 -4 0 -20 -25 -35 -55 -16 -30 -32 -55 -37 -55
-4 0 -8 -6 -8 -13 0 -12 -9 -26 -50 -74 -5 -7 -10 -17 -10 -23 0 -5 -6 -10
-12 -10 -9 0 -8 -3 2 -10 11 -7 9 -11 -13 -19 -16 -6 -33 -11 -39 -11 -5 0 -7
-7 -4 -16 3 -9 6 -17 6 -20 0 -2 16 7 36 21 71 48 222 79 314 64 55 -9 63 -7
97 15 89 56 252 243 310 354 l35 67 -4 125 c-4 111 -7 132 -33 188 -43 96
-137 177 -289 252 -122 60 -194 80 -254 70z m264 -438 c-9 -2 -16 -10 -16 -18
0 -18 -14 -18 -30 1 -10 13 -9 19 5 35 17 19 19 19 38 3 17 -16 17 -18 3 -21z
m-12 -117 c3 -8 1 -15 -4 -15 -6 0 -10 7 -10 15 0 8 2 15 4 15 2 0 6 -7 10
-15z m11 -123 c-3 -3 -11 0 -18 7 -9 10 -8 11 6 5 10 -3 15 -9 12 -12z m32
-37 c-21 -20 -26 -19 -20 5 3 11 9 17 14 14 5 -3 9 1 10 8 0 10 2 10 6 1 2 -7
-2 -20 -10 -28z m58 25 c3 -5 1 -10 -4 -10 -6 0 -11 5 -11 10 0 6 2 10 4 10 3
0 8 -4 11 -10z m52 4 c-3 -3 -12 -4 -19 -1 -8 3 -5 6 6 6 11 1 17 -2 13 -5z
m-152 -35 c0 -13 3 -28 6 -34 4 -5 1 -15 -6 -22 -10 -9 -13 -4 -13 28 -1 21
-4 44 -8 50 -4 7 -1 10 7 7 8 -3 14 -16 14 -29z m55 -19 c0 -5 -10 -10 -22 -9
-22 0 -22 1 -3 9 11 5 21 9 23 9 1 1 2 -3 2 -9z m-50 -130 c0 -5 -2 -10 -4
-10 -3 0 -8 5 -11 10 -3 6 -1 10 4 10 6 0 11 -4 11 -10z"/>
<path d="M3400 6135 c-7 -8 -20 -15 -29 -16 -10 0 -11 -2 -4 -6 7 -2 25 5 39
16 15 12 22 21 17 21 -6 0 -16 -7 -23 -15z"/>
<path d="M3070 6130 c0 -5 -11 -12 -25 -16 -14 -3 -22 -10 -20 -15 6 -9 74 21
75 34 0 4 -7 7 -15 7 -8 0 -15 -4 -15 -10z"/>
<path d="M3294 6104 c-18 -15 -18 -15 6 -10 14 3 32 6 40 6 13 0 13 1 0 10
-20 13 -23 13 -46 -6z"/>
<path d="M3240 6084 l-25 -15 25 7 c28 7 35 12 29 18 -2 2 -15 -2 -29 -10z"/>
<path d="M3565 6092 c6 -5 21 -13 35 -17 17 -5 22 -4 15 3 -5 5 -21 13 -35 17
-17 5 -22 4 -15 -3z"/>
<path d="M2988 6073 c7 -3 16 -2 19 1 4 3 -2 6 -13 5 -11 0 -14 -3 -6 -6z"/>
<path d="M3520 6040 c0 -8 5 -22 10 -30 9 -13 10 -13 10 0 0 8 -5 22 -10 30
-9 13 -10 13 -10 0z"/>
<path d="M3110 6001 c0 -17 2 -31 4 -31 8 0 13 51 5 56 -5 3 -9 -9 -9 -25z"/>
<path d="M2936 5884 c0 -52 -3 -94 -8 -94 -4 0 -8 -7 -8 -16 0 -8 3 -13 8 -11
4 3 7 -15 7 -40 1 -55 12 -63 91 -63 88 0 97 15 46 77 -42 50 -122 193 -122
218 0 8 -3 16 -7 18 -5 3 -8 -37 -7 -89z"/>
<path d="M3120 5941 c0 -25 53 -138 57 -124 2 5 -10 40 -27 78 -19 45 -30 61
-30 46z"/>
<path d="M3444 5595 c-4 -8 -12 -15 -20 -15 -8 0 -11 -6 -7 -16 5 -13 2 -15
-15 -9 -16 4 -22 2 -22 -9 0 -10 -6 -13 -15 -10 -8 4 -15 1 -15 -7 0 -7 -3 -9
-6 -6 -4 3 -15 -4 -25 -17 -10 -13 -33 -31 -51 -40 l-33 -17 57 5 c32 4 78 13
104 22 25 8 52 13 60 10 8 -3 14 -1 14 4 0 6 4 10 9 10 5 0 8 -7 7 -16 0 -9 4
-19 10 -21 18 -6 0 70 -24 104 -12 17 -19 33 -15 37 3 3 3 6 -1 6 -3 0 -9 -7
-12 -15z"/>
<path d="M2950 5576 c0 -26 41 -116 52 -116 5 0 6 6 1 13 -4 6 -10 32 -13 56
-4 32 -10 45 -22 47 -10 1 -18 1 -18 0z"/>
<path d="M3587 5486 c-3 -7 -1 -18 5 -24 6 -6 6 -12 -1 -16 -6 -4 -11 -2 -11
3 0 6 -4 11 -10 11 -5 0 -7 -6 -4 -14 3 -8 1 -23 -5 -33 -10 -17 -10 -17 -11
0 0 17 -2 18 -45 20 -29 1 -136 -97 -129 -118 3 -7 -5 -20 -18 -29 -12 -9 -17
-16 -11 -16 7 0 10 -7 6 -16 -5 -12 -1 -15 13 -11 10 3 35 9 54 13 61 12 115
54 125 97 4 16 14 31 21 34 8 3 14 12 14 20 0 19 25 44 36 35 5 -4 2 2 -7 13
-9 11 -14 26 -12 33 6 17 -4 15 -10 -2z"/>
<path d="M3620 5410 c13 -23 20 -26 20 -6 0 8 -7 16 -15 20 -13 4 -14 2 -5
-14z"/>
<path d="M3590 5414 c0 -5 6 -16 13 -23 10 -11 10 -13 0 -7 -8 4 -13 1 -13 -8
0 -21 19 -21 27 0 3 8 -2 23 -11 32 -9 9 -16 12 -16 6z"/>
<path d="M3621 5294 c0 -11 3 -14 6 -6 3 7 2 16 -1 19 -3 4 -6 -2 -5 -13z"/>
<path d="M3710 5206 c0 -9 5 -16 10 -16 6 0 10 4 10 9 0 6 -4 13 -10 16 -5 3
-10 -1 -10 -9z"/>
<path d="M3338 5164 c-4 -3 -39 -10 -79 -15 -40 -5 -74 -11 -76 -13 -3 -2 0
-13 6 -24 10 -18 29 -21 84 -13 4 1 7 8 7 16 0 8 16 21 35 29 19 8 35 17 35
20 0 8 -5 8 -12 0z"/>
<path d="M3702 5118 c5 -15 28 -23 28 -10 0 5 -7 13 -16 16 -10 4 -14 1 -12
-6z"/>
<path d="M3480 5053 c0 -10 5 -35 11 -56 8 -32 13 -36 25 -26 8 6 14 17 14 23
0 6 -4 4 -10 -4 -5 -8 -12 -11 -17 -7 -4 4 -1 17 6 28 7 12 10 24 7 27 -3 3
-6 0 -6 -7 0 -7 -5 -9 -11 -5 -6 3 -9 15 -6 25 3 11 1 19 -4 19 -5 0 -9 -8 -9
-17z"/>
<path d="M3644 5015 c3 -8 1 -15 -5 -15 -6 0 -9 -7 -5 -15 3 -8 0 -15 -5 -15
-7 0 -9 -9 -6 -21 3 -11 -3 -35 -15 -54 -11 -19 -17 -39 -13 -45 3 -5 1 -10
-4 -10 -6 0 -11 -4 -11 -10 0 -16 38 -11 80 10 47 24 59 57 40 109 -9 26 -10
36 -1 39 6 2 11 8 11 13 0 4 -6 6 -14 3 -7 -3 -16 2 -19 10 -4 9 -14 16 -23
16 -10 0 -14 -5 -10 -15z"/>
<path d="M3726 4995 c4 -8 1 -15 -5 -15 -6 0 -11 -4 -11 -10 0 -5 7 -7 15 -4
16 7 21 44 5 44 -5 0 -7 -7 -4 -15z"/>
<path d="M3277 4993 c-27 -4 -29 -7 -22 -41 10 -59 36 -93 80 -108 21 -7 40
-12 40 -11 1 1 7 20 14 42 11 35 10 46 -4 83 -18 45 -26 47 -108 35z m93 -18
c0 -2 -13 -11 -30 -20 -16 -9 -30 -12 -30 -7 0 5 10 14 23 20 25 12 37 14 37
7z"/>
<path d="M3830 4880 c0 -5 5 -10 11 -10 5 0 7 5 4 10 -3 6 -8 10 -11 10 -2 0
-4 -4 -4 -10z"/>
<path d="M3750 4819 c0 -11 -4 -17 -10 -14 -5 3 -10 -3 -10 -14 0 -12 -4 -21
-9 -21 -8 0 -24 -37 -22 -51 0 -4 -28 -14 -62 -24 -34 -10 -71 -24 -82 -31
-19 -13 -18 -14 7 -14 14 0 28 6 31 14 4 9 26 14 74 15 37 1 77 4 88 7 26 8
56 35 50 44 -3 4 3 14 12 21 15 12 16 12 10 -5 -6 -16 -5 -17 8 -6 9 7 14 19
11 27 -3 8 -1 11 4 8 6 -3 10 -14 10 -23 0 -11 3 -13 10 -6 13 13 3 44 -14 44
-7 0 -6 3 2 9 10 6 4 13 -21 25 -50 23 -87 21 -87 -5z"/>
<path d="M3328 4730 c5 -33 14 -43 58 -58 30 -10 32 -9 38 19 9 48 12 46 -70
62 -29 5 -30 4 -26 -23z"/>
<path d="M3844 4709 c-4 -7 -3 -9 4 -5 5 3 13 0 15 -6 4 -9 6 -10 6 -1 1 17
-16 25 -25 12z"/>
<path d="M3900 4630 c0 -5 5 -10 10 -10 6 0 10 5 10 10 0 6 -4 10 -10 10 -5 0
-10 -4 -10 -10z"/>
<path d="M3360 4569 c0 -5 5 -30 11 -54 9 -36 15 -44 41 -49 51 -10 55 -8 50
23 -3 22 1 33 17 43 19 12 16 14 -42 30 -73 21 -77 21 -77 7z"/>
<path d="M3840 4541 c0 -7 -4 -9 -10 -6 -5 3 -10 1 -10 -4 0 -6 4 -11 9 -11
13 0 25 20 17 27 -3 4 -6 1 -6 -6z"/>
<path d="M4187 4399 c7 -7 15 -10 18 -7 3 3 -2 9 -12 12 -14 6 -15 5 -6 -5z"/>
<path d="M3435 4370 c3 -5 10 -10 16 -10 5 0 9 5 9 10 0 6 -7 10 -16 10 -8 0
-12 -4 -9 -10z"/>
<path d="M3695 4370 c3 -5 10 -10 16 -10 5 0 9 5 9 10 0 6 -7 10 -16 10 -8 0
-12 -4 -9 -10z"/>
<path d="M3901 4364 c0 -11 3 -14 6 -6 3 7 2 16 -1 19 -3 4 -6 -2 -5 -13z"/>
<path d="M3928 4365 c-8 -8 4 -65 13 -65 12 0 12 57 0 64 -4 3 -10 3 -13 1z"/>
<path d="M3926 4281 c-4 -7 -5 -15 -2 -18 9 -9 19 4 14 18 -4 11 -6 11 -12 0z"/>
<path d="M4337 4261 c-4 -17 -3 -21 5 -13 5 5 8 16 6 23 -3 8 -7 3 -11 -10z"/>
<path d="M3996 4002 c-2 -4 -1 -14 4 -22 7 -11 12 -12 21 -3 6 6 8 16 5 22 -8
13 -23 14 -30 3z"/>
<path d="M4240 3899 c0 -5 -4 -7 -10 -4 -5 3 -10 5 -10 3 0 -2 -7 -41 -15 -87
-10 -60 -12 -87 -4 -92 7 -4 6 -8 -4 -12 -17 -6 -28 -65 -15 -73 5 -3 2 -14
-7 -24 -13 -14 -13 -19 -3 -23 10 -4 10 -8 -2 -16 -8 -5 -11 -13 -7 -17 3 -4
13 -2 20 5 12 9 14 6 12 -14 -4 -33 1 -32 19 8 30 64 46 120 45 161 -1 22 -3
33 -6 23 -2 -9 -9 -15 -14 -12 -5 3 -6 0 -3 -8 3 -8 0 -18 -5 -22 -6 -3 -9
-10 -6 -15 3 -5 0 -12 -6 -16 -8 -4 -9 -3 -5 4 4 7 2 12 -5 12 -8 0 -8 4 -1
13 14 18 21 78 8 70 -6 -4 -5 1 3 11 17 21 22 76 7 76 -8 0 -8 3 0 8 12 8 29
52 20 52 -3 0 -6 -5 -6 -11z"/>
<path d="M4016 3863 c-11 -11 -6 -23 9 -23 8 0 15 4 15 9 0 13 -16 22 -24 14z"/>
<path d="M3900 3840 c0 -5 5 -10 10 -10 6 0 10 5 10 10 0 6 -4 10 -10 10 -5 0
-10 -4 -10 -10z"/>
<path d="M4026 3723 c-11 -11 -6 -23 9 -23 8 0 15 4 15 9 0 13 -16 22 -24 14z"/>
<path d="M3810 3700 c0 -5 5 -10 10 -10 6 0 10 5 10 10 0 6 -4 10 -10 10 -5 0
-10 -4 -10 -10z"/>
<path d="M3910 3700 c0 -5 5 -10 10 -10 6 0 10 5 10 10 0 6 -4 10 -10 10 -5 0
-10 -4 -10 -10z"/>
<path d="M3927 3574 c-8 -8 1 -24 14 -24 5 0 9 7 9 15 0 15 -12 20 -23 9z"/>
<path d="M3830 3560 c0 -5 5 -10 10 -10 6 0 10 5 10 10 0 6 -4 10 -10 10 -5 0
-10 -4 -10 -10z"/>
<path d="M4160 3530 c-8 -5 -12 -11 -9 -14 2 -3 11 -1 19 4 8 5 12 11 9 14 -2
3 -11 1 -19 -4z"/>
<path d="M4141 3484 c-7 -8 -10 -18 -6 -22 3 -4 11 1 16 11 6 9 15 14 21 11 7
-4 8 -2 4 4 -9 16 -18 15 -35 -4z"/>
<path d="M4130 3440 c-8 -5 -12 -12 -9 -15 4 -3 12 1 19 10 14 17 11 19 -10 5z"/>
<path d="M3850 3421 c0 -6 5 -13 10 -16 6 -3 10 1 10 9 0 9 -4 16 -10 16 -5 0
-10 -4 -10 -9z"/>
<path d="M4090 3349 c0 -5 5 -7 10 -4 6 3 10 8 10 11 0 2 -4 4 -10 4 -5 0 -10
-5 -10 -11z"/>
<path d="M4070 3310 c0 -5 5 -10 10 -10 6 0 10 5 10 10 0 6 -4 10 -10 10 -5 0
-10 -4 -10 -10z"/>
<path d="M4030 3241 c0 -6 5 -13 10 -16 6 -3 10 1 10 9 0 9 -4 16 -10 16 -5 0
-10 -4 -10 -9z"/>
<path d="M2368 4971 c-20 -4 -66 -22 -102 -40 -158 -77 -216 -158 -216 -298 1
-115 24 -158 168 -300 l63 -63 83 0 c88 0 126 -9 191 -43 32 -17 37 -17 26 -4
-7 9 -19 17 -25 17 -16 0 -91 116 -133 206 -40 87 -57 178 -51 274 3 55 9 75
33 110 65 92 65 92 53 114 -19 37 -26 39 -90 27z m-88 -286 c0 -8 -4 -15 -10
-15 -5 0 -10 7 -10 15 0 8 5 15 10 15 6 0 10 -7 10 -15z m-14 -175 c0 -11 -5
-20 -11 -20 -5 0 -3 -5 5 -10 17 -11 9 -13 -14 -4 -14 5 -14 9 -4 22 10 12 10
14 1 8 -7 -4 -13 -3 -13 3 0 8 14 18 30 20 3 1 6 -8 6 -19z"/>
<path d="M2676 4082 c-4 -10 -26 -49 -51 -87 -25 -37 -45 -72 -45 -76 0 -15
87 -10 99 5 8 9 11 44 9 95 -2 45 -4 81 -5 81 -1 0 -4 -8 -7 -18z"/>
<path d="M2546 4063 c-6 -14 -5 -15 5 -6 7 7 10 15 7 18 -3 3 -9 -2 -12 -12z"/>
<path d="M2523 3842 c-32 -5 -29 -17 7 -32 17 -7 30 -19 30 -26 0 -8 9 -14 20
-14 25 0 80 27 80 39 0 5 3 16 6 25 3 9 1 16 -5 16 -6 0 -11 -10 -12 -22 0
-13 -3 -17 -6 -10 -4 10 -9 10 -23 -3 -21 -19 -60 -12 -60 10 0 18 -9 22 -37
17z"/>
<path d="M2263 3763 c-12 -4 -5 -43 7 -43 5 0 12 -9 15 -21 9 -27 62 -59 98
-59 25 0 27 3 22 23 -17 54 -101 113 -142 100z"/>
<path d="M2230 3732 c0 -5 6 -17 14 -27 13 -18 14 -18 9 8 -5 24 -23 39 -23
19z"/>
<path d="M2480 3693 c0 -6 9 -22 21 -37 28 -35 71 -35 94 0 9 14 15 27 13 29
-9 10 -128 17 -128 8z"/>
<path d="M2456 3556 c4 -10 18 -16 36 -16 40 0 32 24 -10 28 -25 3 -31 0 -26
-12z"/>
<path d="M2193 3488 c-14 -18 -24 -81 -15 -94 10 -15 47 -34 66 -34 15 0 15 3
1 36 -8 20 -15 47 -15 59 0 30 -23 50 -37 33z"/>
<path d="M2390 3444 c-12 -32 -3 -74 17 -74 27 0 51 20 62 51 16 47 15 49 -29
49 -34 0 -42 -4 -50 -26z"/>
<path d="M2372 3302 c-7 -5 -10 -16 -6 -25 10 -28 44 -19 57 16 5 13 1 17 -16
17 -12 0 -28 -4 -35 -8z"/>
<path d="M2362 3189 c-29 -9 -32 -13 -26 -37 9 -35 7 -34 38 -23 20 8 26 17
26 41 0 16 -1 30 -2 29 -2 0 -18 -5 -36 -10z"/>
<path d="M1970 2815 c0 -8 5 -15 10 -15 6 0 10 7 10 15 0 8 -4 15 -10 15 -5 0
-10 -7 -10 -15z"/>
</g>
</svg>
